<svg width="1200" height="2400" xmlns="http://www.w3.org/2000/svg">
  <defs>
    <linearGradient id="grad2" x1="0%" y1="0%" x2="100%" y2="100%">
      <stop offset="0%" style="stop-color:#764ba2;stop-opacity:1" />
      <stop offset="100%" style="stop-color:#667eea;stop-opacity:1" />
    </linearGradient>
  </defs>
  
  <!-- Header -->
  <rect width="1200" height="70" fill="#2c3e50"/>
  <circle cx="60" cy="35" r="20" fill="url(#grad2)"/>
  <text x="60" y="40" text-anchor="middle" fill="white" font-family="Arial" font-size="12" font-weight="bold">A</text>
  
  <!-- Navigation -->
  <rect x="150" y="20" width="80" height="30" rx="15" fill="#34495e"/>
  <rect x="250" y="20" width="80" height="30" rx="15" fill="#34495e"/>
  <rect x="350" y="20" width="80" height="30" rx="15" fill="#34495e"/>
  
  <!-- Hero Banner -->
  <rect y="70" width="1200" height="350" fill="url(#grad2)"/>
  <text x="600" y="180" text-anchor="middle" fill="white" font-family="Arial" font-size="42" font-weight="bold">Digital Solutions</text>
  <text x="600" y="220" text-anchor="middle" fill="white" font-family="Arial" font-size="18">Innovative technology for modern businesses</text>
  <rect x="480" y="250" width="240" height="45" rx="22" fill="white"/>
  <text x="600" y="277" text-anchor="middle" fill="#764ba2" font-family="Arial" font-size="16" font-weight="bold">Learn More</text>
  
  <!-- Features Section -->
  <rect y="420" width="1200" height="400" fill="#ecf0f1"/>
  <text x="600" y="480" text-anchor="middle" fill="#2c3e50" font-family="Arial" font-size="32" font-weight="bold">Our Services</text>
  
  <!-- Feature Cards -->
  <rect x="80" y="520" width="320" height="240" rx="12" fill="white" stroke="#bdc3c7"/>
  <rect x="440" y="520" width="320" height="240" rx="12" fill="white" stroke="#bdc3c7"/>
  <rect x="800" y="520" width="320" height="240" rx="12" fill="white" stroke="#bdc3c7"/>
  
  <!-- Feature Icons -->
  <circle cx="240" cy="580" r="25" fill="#3498db"/>
  <circle cx="600" cy="580" r="25" fill="#e74c3c"/>
  <circle cx="960" cy="580" r="25" fill="#2ecc71"/>
  
  <!-- Feature Text -->
  <text x="240" y="630" text-anchor="middle" fill="#2c3e50" font-family="Arial" font-size="20" font-weight="bold">Analytics</text>
  <text x="600" y="630" text-anchor="middle" fill="#2c3e50" font-family="Arial" font-size="20" font-weight="bold">Security</text>
  <text x="960" y="630" text-anchor="middle" fill="#2c3e50" font-family="Arial" font-size="20" font-weight="bold">Performance</text>
  
  <!-- Content Section -->
  <rect y="820" width="1200" height="350" fill="#ffffff"/>
  <text x="600" y="920" text-anchor="middle" fill="#2c3e50" font-family="Arial" font-size="28" font-weight="bold">Why Choose Us</text>
  
  <!-- Stats -->
  <rect x="200" y="980" width="200" height="120" rx="8" fill="#f8f9fa"/>
  <rect x="500" y="980" width="200" height="120" rx="8" fill="#f8f9fa"/>
  <rect x="800" y="980" width="200" height="120" rx="8" fill="#f8f9fa"/>
  
  <text x="300" y="1020" text-anchor="middle" fill="#764ba2" font-family="Arial" font-size="32" font-weight="bold">500+</text>
  <text x="600" y="1020" text-anchor="middle" fill="#764ba2" font-family="Arial" font-size="32" font-weight="bold">99%</text>
  <text x="900" y="1020" text-anchor="middle" fill="#764ba2" font-family="Arial" font-size="32" font-weight="bold">24/7</text>
  
  <text x="300" y="1050" text-anchor="middle" fill="#7f8c8d" font-family="Arial" font-size="14">Projects</text>
  <text x="600" y="1050" text-anchor="middle" fill="#7f8c8d" font-family="Arial" font-size="14">Uptime</text>
  <text x="900" y="1050" text-anchor="middle" fill="#7f8c8d" font-family="Arial" font-size="14">Support</text>
  
  <!-- Team Section -->
  <rect y="1170" width="1200" height="300" fill="#f7f9fc"/>
  <text x="600" y="1230" text-anchor="middle" fill="#2c3e50" font-family="Arial" font-size="28" font-weight="bold">Meet Our Team</text>
  
  <!-- Team Cards -->
  <rect x="250" y="1270" width="180" height="160" rx="10" fill="white"/>
  <rect x="510" y="1270" width="180" height="160" rx="10" fill="white"/>
  <rect x="770" y="1270" width="180" height="160" rx="10" fill="white"/>
  
  <!-- Team Photos -->
  <circle cx="340" cy="1320" r="30" fill="#95a5a6"/>
  <circle cx="600" cy="1320" r="30" fill="#95a5a6"/>
  <circle cx="860" cy="1320" r="30" fill="#95a5a6"/>
  
  <!-- Blog Section -->
  <rect y="1470" width="1200" height="400" fill="#ffffff"/>
  <text x="600" y="1530" text-anchor="middle" fill="#2c3e50" font-family="Arial" font-size="28" font-weight="bold">Latest News</text>
  
  <!-- Blog Cards -->
  <rect x="100" y="1570" width="330" height="220" rx="8" fill="#f8f9fa" stroke="#dee2e6"/>
  <rect x="435" y="1570" width="330" height="220" rx="8" fill="#f8f9fa" stroke="#dee2e6"/>
  <rect x="770" y="1570" width="330" height="220" rx="8" fill="#f8f9fa" stroke="#dee2e6"/>
  
  <!-- Blog Images -->
  <rect x="100" y="1570" width="330" height="120" rx="8" fill="#e9ecef"/>
  <rect x="435" y="1570" width="330" height="120" rx="8" fill="#e9ecef"/>
  <rect x="770" y="1570" width="330" height="120" rx="8" fill="#e9ecef"/>
  
  <!-- Newsletter -->
  <rect y="1870" width="1200" height="200" fill="#2c3e50"/>
  <text x="600" y="1930" text-anchor="middle" fill="white" font-family="Arial" font-size="24" font-weight="bold">Stay Updated</text>
  <text x="600" y="1960" text-anchor="middle" fill="#bdc3c7" font-family="Arial" font-size="16">Subscribe to our newsletter</text>
  
  <!-- Footer -->
  <rect y="2070" width="1200" height="330" fill="#34495e"/>
  <text x="600" y="2150" text-anchor="middle" fill="white" font-family="Arial" font-size="20" font-weight="bold">Company Name</text>
  <text x="600" y="2180" text-anchor="middle" fill="#95a5a6" font-family="Arial" font-size="14">Building the future, one project at a time</text>
  
  <!-- Footer Links -->
  <rect x="200" y="2220" width="200" height="80" fill="transparent"/>
  <rect x="500" y="2220" width="200" height="80" fill="transparent"/>
  <rect x="800" y="2220" width="200" height="80" fill="transparent"/>
  
  <text x="300" y="2245" text-anchor="middle" fill="#ecf0f1" font-family="Arial" font-size="16" font-weight="bold">Services</text>
  <text x="600" y="2245" text-anchor="middle" fill="#ecf0f1" font-family="Arial" font-size="16" font-weight="bold">Company</text>
  <text x="900" y="2245" text-anchor="middle" fill="#ecf0f1" font-family="Arial" font-size="16" font-weight="bold">Contact</text>
  
  <!-- Copyright -->
  <text x="600" y="2350" text-anchor="middle" fill="#7f8c8d" font-family="Arial" font-size="12">© 2025 Company Name. All rights reserved.</text>
</svg>
