<svg width="1200" height="2400" xmlns="http://www.w3.org/2000/svg">
  <defs>
    <linearGradient id="grad3" x1="0%" y1="0%" x2="100%" y2="100%">
      <stop offset="0%" style="stop-color:#667eea;stop-opacity:1" />
      <stop offset="50%" style="stop-color:#764ba2;stop-opacity:1" />
      <stop offset="100%" style="stop-color:#f093fb;stop-opacity:1" />
    </linearGradient>
  </defs>
  
  <!-- Header -->
  <rect width="1200" height="80" fill="#ffffff" stroke="#e1e5e9"/>
  <text x="60" y="50" fill="#333" font-family="Arial" font-size="24" font-weight="bold">E-Commerce</text>
  
  <!-- Navigation -->
  <rect x="200" y="25" width="70" height="30" rx="15" fill="#f8f9fa"/>
  <rect x="290" y="25" width="70" height="30" rx="15" fill="#f8f9fa"/>
  <rect x="380" y="25" width="70" height="30" rx="15" fill="#f8f9fa"/>
  <rect x="470" y="25" width="70" height="30" rx="15" fill="#f8f9fa"/>
  
  <!-- Cart Icon -->
  <circle cx="1050" cy="40" r="20" fill="url(#grad3)"/>
  <text x="1050" y="45" text-anchor="middle" fill="white" font-family="Arial" font-size="12" font-weight="bold">3</text>
  
  <!-- Hero Section -->
  <rect y="80" width="1200" height="400" fill="url(#grad3)"/>
  <text x="600" y="200" text-anchor="middle" fill="white" font-family="Arial" font-size="48" font-weight="bold">Summer Sale</text>
  <text x="600" y="240" text-anchor="middle" fill="white" font-family="Arial" font-size="24">Up to 50% off on selected items</text>
  <rect x="500" y="280" width="200" height="50" rx="25" fill="white"/>
  <text x="600" y="310" text-anchor="middle" fill="#667eea" font-family="Arial" font-size="16" font-weight="bold">Shop Now</text>
  
  <!-- Categories -->
  <rect y="480" width="1200" height="300" fill="#f8f9fa"/>
  <text x="600" y="530" text-anchor="middle" fill="#333" font-family="Arial" font-size="32" font-weight="bold">Shop by Category</text>
  
  <!-- Category Cards -->
  <rect x="100" y="570" width="200" height="150" rx="10" fill="white" stroke="#dee2e6"/>
  <rect x="350" y="570" width="200" height="150" rx="10" fill="white" stroke="#dee2e6"/>
  <rect x="600" y="570" width="200" height="150" rx="10" fill="white" stroke="#dee2e6"/>
  <rect x="850" y="570" width="200" height="150" rx="10" fill="white" stroke="#dee2e6"/>
  
  <!-- Category Icons -->
  <circle cx="200" cy="620" r="30" fill="#e74c3c"/>
  <circle cx="450" cy="620" r="30" fill="#3498db"/>
  <circle cx="700" cy="620" r="30" fill="#2ecc71"/>
  <circle cx="950" cy="620" r="30" fill="#f39c12"/>
  
  <!-- Category Labels -->
  <text x="200" y="680" text-anchor="middle" fill="#333" font-family="Arial" font-size="16" font-weight="bold">Fashion</text>
  <text x="450" y="680" text-anchor="middle" fill="#333" font-family="Arial" font-size="16" font-weight="bold">Electronics</text>
  <text x="700" y="680" text-anchor="middle" fill="#333" font-family="Arial" font-size="16" font-weight="bold">Home</text>
  <text x="950" y="680" text-anchor="middle" fill="#333" font-family="Arial" font-size="16" font-weight="bold">Sports</text>
  
  <!-- Featured Products -->
  <rect y="780" width="1200" height="500" fill="#ffffff"/>
  <text x="600" y="830" text-anchor="middle" fill="#333" font-family="Arial" font-size="32" font-weight="bold">Featured Products</text>
  
  <!-- Product Grid -->
  <rect x="80" y="870" width="260" height="360" rx="10" fill="#f8f9fa" stroke="#dee2e6"/>
  <rect x="370" y="870" width="260" height="360" rx="10" fill="#f8f9fa" stroke="#dee2e6"/>
  <rect x="660" y="870" width="260" height="360" rx="10" fill="#f8f9fa" stroke="#dee2e6"/>
  <rect x="950" y="870" width="220" height="360" rx="10" fill="#f8f9fa" stroke="#dee2e6"/>
  
  <!-- Product Images -->
  <rect x="80" y="870" width="260" height="200" rx="10" fill="#e9ecef"/>
  <rect x="370" y="870" width="260" height="200" rx="10" fill="#e9ecef"/>
  <rect x="660" y="870" width="260" height="200" rx="10" fill="#e9ecef"/>
  <rect x="950" y="870" width="220" height="200" rx="10" fill="#e9ecef"/>
  
  <!-- Product Info -->
  <text x="210" y="1110" text-anchor="middle" fill="#333" font-family="Arial" font-size="16" font-weight="bold">Wireless Headphones</text>
  <text x="500" y="1110" text-anchor="middle" fill="#333" font-family="Arial" font-size="16" font-weight="bold">Smart Watch</text>
  <text x="790" y="1110" text-anchor="middle" fill="#333" font-family="Arial" font-size="16" font-weight="bold">Gaming Laptop</text>
  <text x="1060" y="1110" text-anchor="middle" fill="#333" font-family="Arial" font-size="16" font-weight="bold">Camera</text>
  
  <!-- Prices -->
  <text x="210" y="1140" text-anchor="middle" fill="#e74c3c" font-family="Arial" font-size="20" font-weight="bold">$99.99</text>
  <text x="500" y="1140" text-anchor="middle" fill="#e74c3c" font-family="Arial" font-size="20" font-weight="bold">$199.99</text>
  <text x="790" y="1140" text-anchor="middle" fill="#e74c3c" font-family="Arial" font-size="20" font-weight="bold">$1299.99</text>
  <text x="1060" y="1140" text-anchor="middle" fill="#e74c3c" font-family="Arial" font-size="20" font-weight="bold">$599.99</text>
  
  <!-- Add to Cart Buttons -->
  <rect x="150" y="1170" width="120" height="35" rx="17" fill="url(#grad3)"/>
  <rect x="440" y="1170" width="120" height="35" rx="17" fill="url(#grad3)"/>
  <rect x="730" y="1170" width="120" height="35" rx="17" fill="url(#grad3)"/>
  <rect x="1000" y="1170" width="120" height="35" rx="17" fill="url(#grad3)"/>
  
  <text x="210" y="1192" text-anchor="middle" fill="white" font-family="Arial" font-size="12" font-weight="bold">Add to Cart</text>
  <text x="500" y="1192" text-anchor="middle" fill="white" font-family="Arial" font-size="12" font-weight="bold">Add to Cart</text>
  <text x="790" y="1192" text-anchor="middle" fill="white" font-family="Arial" font-size="12" font-weight="bold">Add to Cart</text>
  <text x="1060" y="1192" text-anchor="middle" fill="white" font-family="Arial" font-size="12" font-weight="bold">Add to Cart</text>
  
  <!-- Reviews Section -->
  <rect y="1280" width="1200" height="300" fill="#f1f3f4"/>
  <text x="600" y="1330" text-anchor="middle" fill="#333" font-family="Arial" font-size="28" font-weight="bold">Customer Reviews</text>
  
  <!-- Review Cards -->
  <rect x="150" y="1370" width="300" height="140" rx="8" fill="white"/>
  <rect x="500" y="1370" width="300" height="140" rx="8" fill="white"/>
  <rect x="850" y="1370" width="300" height="140" rx="8" fill="white"/>
  
  <!-- Star Ratings -->
  <text x="300" y="1400" text-anchor="middle" fill="#f39c12" font-family="Arial" font-size="16">★★★★★</text>
  <text x="650" y="1400" text-anchor="middle" fill="#f39c12" font-family="Arial" font-size="16">★★★★☆</text>
  <text x="1000" y="1400" text-anchor="middle" fill="#f39c12" font-family="Arial" font-size="16">★★★★★</text>
  
  <!-- Newsletter -->
  <rect y="1580" width="1200" height="200" fill="#667eea"/>
  <text x="600" y="1640" text-anchor="middle" fill="white" font-family="Arial" font-size="28" font-weight="bold">Get 10% Off</text>
  <text x="600" y="1670" text-anchor="middle" fill="white" font-family="Arial" font-size="16">Subscribe to our newsletter for exclusive deals</text>
  
  <!-- Email Input -->
  <rect x="400" y="1700" width="300" height="40" rx="20" fill="white"/>
  <rect x="720" y="1700" width="100" height="40" rx="20" fill="#f093fb"/>
  <text x="775" y="1725" text-anchor="middle" fill="white" font-family="Arial" font-size="14" font-weight="bold">Subscribe</text>
  
  <!-- Footer -->
  <rect y="1780" width="1200" height="620" fill="#2c3e50"/>
  <text x="600" y="1850" text-anchor="middle" fill="white" font-family="Arial" font-size="24" font-weight="bold">ShopSmart</text>
  
  <!-- Footer Sections -->
  <rect x="100" y="1890" width="200" height="200" fill="transparent"/>
  <rect x="350" y="1890" width="200" height="200" fill="transparent"/>
  <rect x="600" y="1890" width="200" height="200" fill="transparent"/>
  <rect x="850" y="1890" width="250" height="200" fill="transparent"/>
  
  <!-- Footer Headings -->
  <text x="200" y="1920" text-anchor="middle" fill="#ecf0f1" font-family="Arial" font-size="16" font-weight="bold">Shop</text>
  <text x="450" y="1920" text-anchor="middle" fill="#ecf0f1" font-family="Arial" font-size="16" font-weight="bold">Support</text>
  <text x="700" y="1920" text-anchor="middle" fill="#ecf0f1" font-family="Arial" font-size="16" font-weight="bold">Company</text>
  <text x="975" y="1920" text-anchor="middle" fill="#ecf0f1" font-family="Arial" font-size="16" font-weight="bold">Follow Us</text>
  
  <!-- Payment Methods -->
  <rect x="400" y="2150" width="400" height="60" fill="transparent"/>
  <text x="600" y="2175" text-anchor="middle" fill="#95a5a6" font-family="Arial" font-size="14">Secure Payment Methods</text>
  
  <!-- Payment Icons -->
  <rect x="450" y="2190" width="60" height="30" rx="5" fill="#1a73e8"/>
  <rect x="520" y="2190" width="60" height="30" rx="5" fill="#eb001b"/>
  <rect x="590" y="2190" width="60" height="30" rx="5" fill="#0070ba"/>
  <rect x="660" y="2190" width="60" height="30" rx="5" fill="#00d924"/>
  
  <!-- Social Media -->
  <circle cx="550" cy="2050" r="20" fill="#3b5998"/>
  <circle cx="600" cy="2050" r="20" fill="#1da1f2"/>
  <circle cx="650" cy="2050" r="20" fill="#e4405f"/>
  
  <!-- Copyright -->
  <text x="600" y="2350" text-anchor="middle" fill="#7f8c8d" font-family="Arial" font-size="12">© 2025 ShopSmart. All rights reserved. | Privacy Policy | Terms of Service</text>
</svg>
